<svg xmlns="http://www.w3.org/2000/svg" version="1.1" xmlns:xlink="http://www.w3.org/1999/xlink" xmlns:svgjs="http://svgjs.com/svgjs" width="750" height="800" preserveAspectRatio="none" viewBox="0 0 750 800"><g mask="url(&quot;#SvgjsMask1026&quot;)" fill="none"><rect width="750" height="800" x="0" y="0" fill="#0e2a47"></rect><path d="M0,362.047C65.169,344.227,99.023,276.063,146.565,228.059C183.158,191.111,217.255,155.481,246.895,112.753C282.89,60.862,345.872,14.052,338.529,-48.673C331.209,-111.2,254.357,-137.119,212.171,-183.847C171.104,-229.336,148.848,-292.61,93.867,-319.68C34.771,-348.777,-34.191,-349.021,-98.963,-337.037C-168.558,-324.161,-243.931,-304.896,-287.5,-249.12C-330.616,-193.924,-327.148,-116.847,-325.66,-46.823C-324.355,14.563,-297.852,69.049,-279.493,127.64C-258.147,195.765,-263.759,279.427,-209.059,325.303C-153.726,371.71,-69.66,381.095,0,362.047" fill="#0b2239"></path><path d="M750 1156.126C816.7 1159.373 873.765 1115.723 932.594 1084.122 996.454 1049.818 1084.575 1032.131 1108.328 963.643 1132.344 894.394 1069.513 826.84 1045.885 757.458 1027.064 702.192 1021.452 642.034 983.652 597.539 945.656 552.813 891.771 525.467 835.283 509.554 779.228 493.763 722 501.066 664.122 507.525 594.466 515.299 514.8389999999999 504.195 462.783 551.125 409.992 598.718 397.921 678.067 396.136 749.122 394.47 815.435 420.111 878.043 453.127 935.577 483.868 989.1469999999999 528.903 1030.052 578.483 1066.885 631.2860000000001 1106.113 684.298 1152.9279999999999 750 1156.126" fill="#113255"></path></g><defs><mask id="SvgjsMask1026"><rect width="750" height="800" fill="#ffffff"></rect></mask></defs></svg>